<svg xmlns="http://www.w3.org/2000/svg" xmlns:xlink="http://www.w3.org/1999/xlink" width="56.586" height="67.361" viewBox="0 0 56.586 67.361">
  <defs>
    <linearGradient id="linear-gradient" x1="1" y1="0.234" x2="0.25" y2="0.843" gradientUnits="objectBoundingBox">
      <stop offset="0" stop-color="#fce776"/>
      <stop offset="1" stop-color="#f7d525"/>
    </linearGradient>
    <linearGradient id="linear-gradient-2" x1="0.5" x2="0.5" y2="1" gradientUnits="objectBoundingBox">
      <stop offset="0" stop-color="#00528a"/>
      <stop offset="1" stop-color="#016ab1"/>
    </linearGradient>
  </defs>
  <g id="Group_127" data-name="Group 127" transform="translate(-1014 -1968.937)">
    <g id="noun-enterprise-2336022" transform="translate(936.988 1951.437)">
      <path id="Path_17" data-name="Path 17" d="M144.817,307.539H140.7a.705.705,0,0,1-.705-.705v-4.129A.706.706,0,0,1,140.7,302h4.119a.705.705,0,0,1,.705.705v4.129A.706.706,0,0,1,144.817,307.539Zm-3.414-1.41h2.709V303.41H141.4Z" transform="translate(-58.751 -261.577)" fill="#35bdf6"/>
      <path id="Path_18" data-name="Path 18" d="M144.817,194.779H140.7a.705.705,0,0,1-.705-.705v-4.129a.705.705,0,0,1,.705-.705h4.119a.705.705,0,0,1,.705.705v4.129A.705.705,0,0,1,144.817,194.779Zm-3.414-1.41h2.709V190.65H141.4Z" transform="translate(-58.751 -157.902)" fill="#35bdf6"/>
      <path id="Path_19" data-name="Path 19" d="M144.817,420.3H140.7a.706.706,0,0,1-.705-.705v-4.13a.705.705,0,0,1,.705-.7h4.119a.705.705,0,0,1,.705.7v4.13A.706.706,0,0,1,144.817,420.3Zm-3.414-1.41h2.709v-2.72H141.4Z" transform="translate(-58.751 -365.254)" fill="#35bdf6"/>
      <path id="Path_20" data-name="Path 20" d="M100.041,154.051H88.205a.705.705,0,0,1-.705-.7V120.715a.705.705,0,0,1,.705-.705h11.836a.705.705,0,1,1,0,1.41H88.91v31.221h11.131a.705.705,0,1,1,0,1.41Z" transform="translate(-10.488 -94.251)" fill="#35bdf6"/>
      <path id="Path_21" data-name="Path 21" d="M264.159,59.8H235.105a.705.705,0,0,1-.705-.705V18.205a.705.705,0,0,1,.705-.705h29.054a.705.705,0,0,1,.705.705V59.1A.705.705,0,0,1,264.159,59.8Zm-28.349-1.41h27.645V18.91H235.81Z" transform="translate(-145.552 0)" fill="#35bdf6"/>
      <path id="Path_22" data-name="Path 22" d="M393.969,307.539H389.85a.706.706,0,0,1-.705-.705v-4.129a.706.706,0,0,1,.705-.705h4.119a.705.705,0,0,1,.7.705v4.129A.705.705,0,0,1,393.969,307.539Zm-3.414-1.41h2.709V303.41h-2.709Z" transform="translate(-287.829 -261.577)" fill="#35bdf6"/>
      <path id="Path_23" data-name="Path 23" d="M496.209,307.539H492.09a.706.706,0,0,1-.705-.705v-4.129a.706.706,0,0,1,.705-.705h4.119a.706.706,0,0,1,.705.705v4.129A.7.7,0,0,1,496.209,307.539Zm-3.414-1.41H495.5V303.41H492.8Z" transform="translate(-381.831 -261.577)" fill="#35bdf6"/>
      <path id="Path_24" data-name="Path 24" d="M291.709,307.539H287.59a.705.705,0,0,1-.705-.705v-4.129a.705.705,0,0,1,.705-.705h4.119a.705.705,0,0,1,.705.705v4.129A.705.705,0,0,1,291.709,307.539Zm-3.414-1.41H291V303.41H288.3Z" transform="translate(-193.808 -261.577)" fill="#35bdf6"/>
      <path id="Path_25" data-name="Path 25" d="M393.969,194.779H389.85a.706.706,0,0,1-.705-.705v-4.129a.706.706,0,0,1,.705-.705h4.119a.705.705,0,0,1,.7.705v4.129A.7.7,0,0,1,393.969,194.779Zm-3.414-1.41h2.709V190.65h-2.709Z" transform="translate(-287.829 -157.902)" fill="#35bdf6"/>
      <path id="Path_26" data-name="Path 26" d="M496.209,194.779H492.09a.706.706,0,0,1-.705-.705v-4.129a.706.706,0,0,1,.705-.705h4.119a.706.706,0,0,1,.705.705v4.129A.7.7,0,0,1,496.209,194.779Zm-3.414-1.41H495.5V190.65H492.8Z" transform="translate(-381.831 -157.902)" fill="#35bdf6"/>
      <path id="Path_27" data-name="Path 27" d="M291.709,194.779H287.59a.705.705,0,0,1-.705-.705v-4.129a.705.705,0,0,1,.705-.705h4.119a.705.705,0,0,1,.705.705v4.129A.7.7,0,0,1,291.709,194.779Zm-3.414-1.41H291V190.65H288.3Z" transform="translate(-193.808 -157.902)" fill="#35bdf6"/>
      <path id="Path_28" data-name="Path 28" d="M393.969,82.022H389.85a.706.706,0,0,1-.705-.705v-4.13a.706.706,0,0,1,.705-.705h4.119a.705.705,0,0,1,.7.705v4.13A.705.705,0,0,1,393.969,82.022Zm-3.414-1.41h2.709v-2.72h-2.709Z" transform="translate(-287.829 -54.23)" fill="#35bdf6"/>
      <path id="Path_29" data-name="Path 29" d="M496.209,82.022H492.09a.706.706,0,0,1-.705-.705v-4.13a.706.706,0,0,1,.705-.705h4.119a.706.706,0,0,1,.705.705v4.13A.7.7,0,0,1,496.209,82.022Zm-3.414-1.41H495.5v-2.72H492.8Z" transform="translate(-381.831 -54.23)" fill="#35bdf6"/>
      <path id="Path_30" data-name="Path 30" d="M291.709,82.022H287.59a.706.706,0,0,1-.705-.705v-4.13a.705.705,0,0,1,.705-.705h4.119a.705.705,0,0,1,.705.705v4.13A.705.705,0,0,1,291.709,82.022Zm-3.414-1.41H291v-2.72H288.3Z" transform="translate(-193.808 -54.23)" fill="#35bdf6"/>
      <path id="Path_31" data-name="Path 31" d="M379.873,425.052h-6.825a.705.705,0,0,1-.705-.705v-8.882a.705.705,0,0,1,.705-.705h6.825a.705.705,0,0,1,.705.705v8.882A.705.705,0,0,1,379.873,425.052Zm-6.12-1.41h5.415V416.17h-5.415Z" transform="translate(-272.38 -365.252)" fill="#35bdf6"/>
      <path id="Path_32" data-name="Path 32" d="M496.209,420.3H492.09a.706.706,0,0,1-.705-.705v-4.13a.705.705,0,0,1,.705-.7h4.119a.705.705,0,0,1,.705.7v4.13A.7.7,0,0,1,496.209,420.3Zm-3.414-1.41H495.5v-2.72H492.8Z" transform="translate(-381.831 -365.254)" fill="#35bdf6"/>
      <path id="Path_33" data-name="Path 33" d="M291.709,420.3H287.59a.706.706,0,0,1-.705-.705v-4.13a.705.705,0,0,1,.705-.7h4.119a.705.705,0,0,1,.705.7v4.13A.705.705,0,0,1,291.709,420.3Zm-3.414-1.41H291v-2.72H288.3Z" transform="translate(-193.808 -365.254)" fill="#35bdf6"/>
    </g>
    <g id="Group_76" data-name="Group 76" transform="translate(-881.757 2464.619)">
      <path id="Path_5" data-name="Path 5" d="M2254.326-497.471l-8.673-4.547Z" transform="translate(-337.328 30.376)" fill="url(#linear-gradient)"/>
      <path id="Path_3" data-name="Path 3" d="M0,0V9.828L12.969,17.6,21.514,13Z" transform="translate(1952.343 -446.953) rotate(120)" fill="#5dc5f0"/>
      <path id="Path_2" data-name="Path 2" d="M2270.872-499.318l-8.4,4.628v15.029l8.4,5.34Z" transform="translate(-318.867 27.708)" fill="url(#linear-gradient-2)"/>
    </g>
  </g>
</svg>
