<svg xmlns="http://www.w3.org/2000/svg" xmlns:xlink="http://www.w3.org/1999/xlink" width="53.868" height="54.99" viewBox="0 0 53.868 54.99">
  <defs>
    <linearGradient id="linear-gradient" y1="0.317" x2="0.768" y2="0.87" gradientUnits="objectBoundingBox">
      <stop offset="0" stop-color="#f8661e"/>
      <stop offset="1" stop-color="#f89020"/>
    </linearGradient>
    <linearGradient id="linear-gradient-2" x1="0.5" x2="0.5" y2="1" gradientUnits="objectBoundingBox">
      <stop offset="0" stop-color="#00528a"/>
      <stop offset="1" stop-color="#016ab1"/>
    </linearGradient>
  </defs>
  <g id="Group_125" data-name="Group 125" transform="translate(-589.753 -1959.648)">
    <g id="noun-crm-3386902" transform="translate(514.788 1927.805)">
      <path id="Path_16" data-name="Path 16" d="M140.653,52.5H106.32A1.322,1.322,0,0,0,105,53.82V76.929a1.322,1.322,0,0,0,1.32,1.32H120.59l-1.54,4.622h-3.485a1.322,1.322,0,0,0-1.32,1.32v1.32a1.322,1.322,0,0,0,1.32,1.32H131.41a1.322,1.322,0,0,0,1.32-1.32v-1.32a1.322,1.322,0,0,0-1.32-1.32h-3.485l-1.54-4.622h14.269a1.322,1.322,0,0,0,1.32-1.32V53.82a1.322,1.322,0,0,0-1.32-1.32Zm0,1.32V72.967H106.321V53.82Zm-9.246,31.691H115.564v-1.32H131.41Zm-4.876-2.641h-6.091l1.54-4.622h3.01ZM106.32,76.929V74.288h34.331v2.641Zm17.826-1.32a.66.66,0,1,1-.66-.66A.66.66,0,0,1,124.146,75.608Zm-8.583-3.961h1.981a.66.66,0,0,0,.66-.66V66.365a.661.661,0,0,0-.66-.66h-1.981a.661.661,0,0,0-.66.66v4.622A.66.66,0,0,0,115.563,71.647Zm.66-4.622h.66v3.3h-.66Zm10.564-3.3h-1.981a.661.661,0,0,0-.66.66v6.6a.66.66,0,0,0,.66.66h1.981a.66.66,0,0,0,.66-.66v-6.6A.661.661,0,0,0,126.787,63.724Zm-.66,6.6h-.66V65.045h.66Zm-3.961-8.583h-1.981a.661.661,0,0,0-.66.66v8.583a.66.66,0,0,0,.66.66h1.981a.66.66,0,0,0,.66-.66V62.4A.661.661,0,0,0,122.166,61.743Zm-.66,8.583h-.66V63.064h.66Zm7.263-10.564V70.987a.66.66,0,0,0,.66.66h1.981a.66.66,0,0,0,.66-.66V59.763a.661.661,0,0,0-.66-.66h-1.981A.661.661,0,0,0,128.768,59.763Zm1.32.66h.66v9.9h-.66ZM116.334,62.11a.661.661,0,0,1,.183-.916l3.961-2.641a.659.659,0,0,1,.46-.1l4.325.618,4.394-3.767a.66.66,0,0,1,.859,1L125.9,60.264a.656.656,0,0,1-.523.152L121,59.791l-3.752,2.5a.646.646,0,0,1-.365.112.66.66,0,0,1-.55-.294Z" transform="translate(-30.035)" fill="#35bdf6"/>
    </g>
    <g id="Group_74" data-name="Group 74" transform="translate(-1312.335 2444.148)">
      <path id="Path_1" data-name="Path 1" d="M2245.653-514.876v10.6l14.695,8.7,9.121-5.282Z" transform="translate(-313.512 30.376)" fill="url(#linear-gradient)"/>
      <path id="Path_2" data-name="Path 2" d="M2271.631-499.318l-9.155,5.046v16.389l9.155,5.823Z" transform="translate(-315.675 28.874)" fill="url(#linear-gradient-2)"/>
    </g>
  </g>
</svg>
