<svg xmlns="http://www.w3.org/2000/svg" xmlns:xlink="http://www.w3.org/1999/xlink" width="65.498" height="73.298" viewBox="0 0 65.498 73.298">
  <defs>
    <linearGradient id="linear-gradient" y1="0.317" x2="0.768" y2="0.87" gradientUnits="objectBoundingBox">
      <stop offset="0" stop-color="#f8661e"/>
      <stop offset="1" stop-color="#f89020"/>
    </linearGradient>
    <linearGradient id="linear-gradient-2" x1="1" y1="0.234" x2="0.25" y2="0.843" gradientUnits="objectBoundingBox">
      <stop offset="0" stop-color="#fce776"/>
      <stop offset="1" stop-color="#f7d525"/>
    </linearGradient>
  </defs>
  <g id="Group_126" data-name="Group 126" transform="translate(-1014 -2272.862)">
    <g id="noun-smart-city-1870343" transform="translate(1022.913 2298.71)">
      <path id="Path_54" data-name="Path 54" d="M490.742,29.492a8.726,8.726,0,0,1,8.715,8.715.745.745,0,0,0,1.49,0,10.173,10.173,0,0,0-10.2-10.2.745.745,0,1,0,0,1.49Z" transform="translate(-453.87 -26.289)" fill="#35bdf6"/>
      <path id="Path_55" data-name="Path 55" d="M490.74,56.642a6.326,6.326,0,0,1,6.331,6.332.745.745,0,0,0,1.49,0,7.82,7.82,0,0,0-7.821-7.821A.7.7,0,0,0,490,55.9a.747.747,0,0,0,.745.745Z" transform="translate(-453.868 -51.055)" fill="#35bdf6"/>
      <path id="Path_56" data-name="Path 56" d="M490.74,82.947a3.974,3.974,0,0,1,3.948,3.948.745.745,0,0,0,1.49,0,5.468,5.468,0,0,0-5.438-5.438.745.745,0,1,0,0,1.49Z" transform="translate(-453.868 -75.051)" fill="#35bdf6"/>
      <path id="Path_57" data-name="Path 57" d="M125.408,25.841h-9.014v-3.5a2.626,2.626,0,0,0,.968-.6c2.235-2.235-1.117-5.661-3.427-3.427a2.341,2.341,0,0,0,.968,3.948v3.5h-3.054V9.229a.7.7,0,0,0-.745-.745H93.526a.7.7,0,0,0-.745.745V25.766H79.224a.7.7,0,0,0-.745.745V55.19a.7.7,0,0,0,.745.745h46.184a.7.7,0,0,0,.745-.745v-28.6a.746.746,0,0,0-.745-.745Zm-9.758-6.63a.932.932,0,0,1,0,1.862A.932.932,0,0,1,115.65,19.211ZM94.271,10.049h16.09v3.8H94.271Zm-14.3,17.282H92.781V54.52H90.7V45.358a.7.7,0,0,0-.745-.745H82.8a.7.7,0,0,0-.745.745V54.52H79.969Zm3.576,27.263V46.1h5.587v8.417H83.545ZM94.271,15.412h16.09V54.594h-3.725V45.357a.7.7,0,0,0-.745-.745H98.815a.7.7,0,0,0-.745.745v9.162H94.345c-.074-11.322-.074-26.891-.074-39.107Zm5.214,39.181V46.1h5.587v8.417H99.485Zm15.94,0V46.1h5.587v8.417h-5.587Zm9.237,0h-2.086V45.357a.7.7,0,0,0-.745-.745h-7.076a.7.7,0,0,0-.745.745v9.162h-2.086V27.33h12.738Z" transform="translate(-78.479 -8.485)" fill="#35bdf6"/>
      <path id="Path_58" data-name="Path 58" d="M577.291,236.715a.7.7,0,0,0,.745-.745v-1.043a.745.745,0,1,0-1.49,0v1.043A.746.746,0,0,0,577.291,236.715Z" transform="translate(-532.82 -214.368)" fill="#35bdf6"/>
      <path id="Path_59" data-name="Path 59" d="M541.651,236.715a.7.7,0,0,0,.745-.745v-1.043a.745.745,0,0,0-1.49,0v1.043A.746.746,0,0,0,541.651,236.715Z" transform="translate(-500.309 -214.368)" fill="#35bdf6"/>
      <path id="Path_60" data-name="Path 60" d="M506.021,236.715a.7.7,0,0,0,.745-.745v-1.043a.745.745,0,0,0-1.49,0v1.043A.747.747,0,0,0,506.021,236.715Z" transform="translate(-467.807 -214.368)" fill="#35bdf6"/>
      <path id="Path_61" data-name="Path 61" d="M470.38,236.715a.7.7,0,0,0,.745-.745v-1.043a.745.745,0,0,0-1.49,0v1.043A.747.747,0,0,0,470.38,236.715Z" transform="translate(-435.295 -214.368)" fill="#35bdf6"/>
      <path id="Path_62" data-name="Path 62" d="M577.291,285.075a.7.7,0,0,0,.745-.745v-1.043a.745.745,0,0,0-1.49,0v1.043A.746.746,0,0,0,577.291,285.075Z" transform="translate(-532.82 -258.482)" fill="#35bdf6"/>
      <path id="Path_63" data-name="Path 63" d="M541.651,285.075a.7.7,0,0,0,.745-.745v-1.043a.745.745,0,0,0-1.49,0v1.043A.746.746,0,0,0,541.651,285.075Z" transform="translate(-500.309 -258.482)" fill="#35bdf6"/>
      <path id="Path_64" data-name="Path 64" d="M506.021,285.075a.7.7,0,0,0,.745-.745v-1.043a.745.745,0,0,0-1.49,0v1.043A.747.747,0,0,0,506.021,285.075Z" transform="translate(-467.807 -258.482)" fill="#35bdf6"/>
      <path id="Path_65" data-name="Path 65" d="M470.38,285.075a.7.7,0,0,0,.745-.745v-1.043a.745.745,0,0,0-1.49,0v1.043A.747.747,0,0,0,470.38,285.075Z" transform="translate(-435.295 -258.482)" fill="#35bdf6"/>
      <path id="Path_66" data-name="Path 66" d="M577.291,333.368a.7.7,0,0,0,.745-.745v-.969a.745.745,0,0,0-1.49,0V332.7A.688.688,0,0,0,577.291,333.368Z" transform="translate(-532.82 -302.604)" fill="#35bdf6"/>
      <path id="Path_67" data-name="Path 67" d="M541.651,333.368a.7.7,0,0,0,.745-.745v-.969a.745.745,0,0,0-1.49,0V332.7A.688.688,0,0,0,541.651,333.368Z" transform="translate(-500.309 -302.604)" fill="#35bdf6"/>
      <path id="Path_68" data-name="Path 68" d="M506.021,333.368a.7.7,0,0,0,.745-.745v-.969a.745.745,0,0,0-1.49,0V332.7A.688.688,0,0,0,506.021,333.368Z" transform="translate(-467.807 -302.604)" fill="#35bdf6"/>
      <path id="Path_69" data-name="Path 69" d="M470.38,333.368a.7.7,0,0,0,.745-.745v-.969a.745.745,0,0,0-1.49,0V332.7A.688.688,0,0,0,470.38,333.368Z" transform="translate(-435.295 -302.604)" fill="#35bdf6"/>
      <path id="Path_70" data-name="Path 70" d="M577.291,380.955a.7.7,0,0,0,.745-.745v-1.043a.745.745,0,1,0-1.49,0v1.043A.7.7,0,0,0,577.291,380.955Z" transform="translate(-532.82 -345.945)" fill="#35bdf6"/>
      <path id="Path_71" data-name="Path 71" d="M541.651,380.955a.7.7,0,0,0,.745-.745v-1.043a.745.745,0,0,0-1.49,0v1.043A.7.7,0,0,0,541.651,380.955Z" transform="translate(-500.309 -345.945)" fill="#35bdf6"/>
      <path id="Path_72" data-name="Path 72" d="M506.021,380.955a.7.7,0,0,0,.745-.745v-1.043a.745.745,0,0,0-1.49,0v1.043A.7.7,0,0,0,506.021,380.955Z" transform="translate(-467.807 -345.945)" fill="#35bdf6"/>
      <path id="Path_73" data-name="Path 73" d="M470.38,380.955a.7.7,0,0,0,.745-.745v-1.043a.745.745,0,0,0-1.49,0v1.043A.7.7,0,0,0,470.38,380.955Z" transform="translate(-435.295 -345.945)" fill="#35bdf6"/>
      <path id="Path_74" data-name="Path 74" d="M407.591,117.748a.7.7,0,0,0,.745-.745V115.29a.745.745,0,1,0-1.49,0V117A.746.746,0,0,0,407.591,117.748Z" transform="translate(-378.018 -105.234)" fill="#35bdf6"/>
      <path id="Path_75" data-name="Path 75" d="M364.32,117.748a.7.7,0,0,0,.745-.745V115.29a.745.745,0,0,0-1.49,0V117A.7.7,0,0,0,364.32,117.748Z" transform="translate(-338.547 -105.234)" fill="#35bdf6"/>
      <path id="Path_76" data-name="Path 76" d="M320.2,117.748a.7.7,0,0,0,.745-.745V115.29a.745.745,0,0,0-1.49,0V117A.746.746,0,0,0,320.2,117.748Z" transform="translate(-298.3 -105.234)" fill="#35bdf6"/>
      <path id="Path_77" data-name="Path 77" d="M276.93,115.39a.7.7,0,0,0-.745.745v1.713a.745.745,0,0,0,1.49,0v-1.713A.746.746,0,0,0,276.93,115.39Z" transform="translate(-258.829 -106.005)" fill="#35bdf6"/>
      <path id="Path_78" data-name="Path 78" d="M407.591,197.508a.7.7,0,0,0,.745-.745V195.05a.745.745,0,0,0-1.49,0v1.713A.8.8,0,0,0,407.591,197.508Z" transform="translate(-378.018 -177.992)" fill="#35bdf6"/>
      <path id="Path_79" data-name="Path 79" d="M364.32,197.508a.7.7,0,0,0,.745-.745V195.05a.745.745,0,0,0-1.49,0v1.713A.746.746,0,0,0,364.32,197.508Z" transform="translate(-338.547 -177.992)" fill="#35bdf6"/>
      <path id="Path_80" data-name="Path 80" d="M320.2,197.508a.7.7,0,0,0,.745-.745V195.05a.745.745,0,0,0-1.49,0v1.713A.8.8,0,0,0,320.2,197.508Z" transform="translate(-298.3 -177.992)" fill="#35bdf6"/>
      <path id="Path_81" data-name="Path 81" d="M276.93,194.3a.7.7,0,0,0-.745.745v1.713a.745.745,0,0,0,1.49,0v-1.713A.746.746,0,0,0,276.93,194.3Z" transform="translate(-258.829 -177.987)" fill="#35bdf6"/>
      <path id="Path_82" data-name="Path 82" d="M407.591,276.418a.7.7,0,0,0,.745-.745V273.96a.745.745,0,1,0-1.49,0v1.713A.8.8,0,0,0,407.591,276.418Z" transform="translate(-378.018 -249.974)" fill="#35bdf6"/>
      <path id="Path_83" data-name="Path 83" d="M364.32,276.418a.7.7,0,0,0,.745-.745V273.96a.745.745,0,1,0-1.49,0v1.713A.746.746,0,0,0,364.32,276.418Z" transform="translate(-338.547 -249.974)" fill="#35bdf6"/>
      <path id="Path_84" data-name="Path 84" d="M320.2,276.418a.7.7,0,0,0,.745-.745V273.96a.745.745,0,1,0-1.49,0v1.713A.8.8,0,0,0,320.2,276.418Z" transform="translate(-298.3 -249.974)" fill="#35bdf6"/>
      <path id="Path_85" data-name="Path 85" d="M276.93,273.21a.7.7,0,0,0-.745.745v1.713a.745.745,0,0,0,1.49,0v-1.713A.8.8,0,0,0,276.93,273.21Z" transform="translate(-258.829 -249.969)" fill="#35bdf6"/>
      <path id="Path_86" data-name="Path 86" d="M407.591,355.328a.7.7,0,0,0,.745-.745V352.87a.745.745,0,0,0-1.49,0v1.713A.8.8,0,0,0,407.591,355.328Z" transform="translate(-378.018 -321.956)" fill="#35bdf6"/>
      <path id="Path_87" data-name="Path 87" d="M364.32,355.328a.7.7,0,0,0,.745-.745V352.87a.745.745,0,0,0-1.49,0v1.713A.746.746,0,0,0,364.32,355.328Z" transform="translate(-338.547 -321.956)" fill="#35bdf6"/>
      <path id="Path_88" data-name="Path 88" d="M320.2,355.328a.7.7,0,0,0,.745-.745V352.87a.745.745,0,0,0-1.49,0v1.713A.8.8,0,0,0,320.2,355.328Z" transform="translate(-298.3 -321.956)" fill="#35bdf6"/>
      <path id="Path_89" data-name="Path 89" d="M276.93,352.12a.7.7,0,0,0-.745.745v1.713a.745.745,0,1,0,1.49,0v-1.713A.8.8,0,0,0,276.93,352.12Z" transform="translate(-258.829 -321.952)" fill="#35bdf6"/>
      <path id="Path_90" data-name="Path 90" d="M214.14,236.715a.7.7,0,0,0,.745-.745v-1.043a.745.745,0,1,0-1.49,0v1.043A.8.8,0,0,0,214.14,236.715Z" transform="translate(-201.551 -214.368)" fill="#35bdf6"/>
      <path id="Path_91" data-name="Path 91" d="M178.5,236.715a.7.7,0,0,0,.745-.745v-1.043a.745.745,0,1,0-1.49,0v1.043A.8.8,0,0,0,178.5,236.715Z" transform="translate(-169.04 -214.368)" fill="#35bdf6"/>
      <path id="Path_92" data-name="Path 92" d="M142.87,236.715a.7.7,0,0,0,.745-.745v-1.043a.745.745,0,1,0-1.49,0v1.043A.8.8,0,0,0,142.87,236.715Z" transform="translate(-136.538 -214.368)" fill="#35bdf6"/>
      <path id="Path_93" data-name="Path 93" d="M107.23,236.715a.7.7,0,0,0,.745-.745v-1.043a.745.745,0,1,0-1.49,0v1.043A.8.8,0,0,0,107.23,236.715Z" transform="translate(-104.027 -214.368)" fill="#35bdf6"/>
      <path id="Path_94" data-name="Path 94" d="M214.14,285.075a.7.7,0,0,0,.745-.745v-1.043a.745.745,0,0,0-1.49,0v1.043A.8.8,0,0,0,214.14,285.075Z" transform="translate(-201.551 -258.482)" fill="#35bdf6"/>
      <path id="Path_95" data-name="Path 95" d="M178.5,285.075a.7.7,0,0,0,.745-.745v-1.043a.745.745,0,0,0-1.49,0v1.043A.8.8,0,0,0,178.5,285.075Z" transform="translate(-169.04 -258.482)" fill="#35bdf6"/>
      <path id="Path_96" data-name="Path 96" d="M142.87,285.075a.7.7,0,0,0,.745-.745v-1.043a.745.745,0,0,0-1.49,0v1.043A.8.8,0,0,0,142.87,285.075Z" transform="translate(-136.538 -258.482)" fill="#35bdf6"/>
      <path id="Path_97" data-name="Path 97" d="M107.23,285.075a.7.7,0,0,0,.745-.745v-1.043a.745.745,0,0,0-1.49,0v1.043A.8.8,0,0,0,107.23,285.075Z" transform="translate(-104.027 -258.482)" fill="#35bdf6"/>
      <path id="Path_98" data-name="Path 98" d="M214.14,333.368a.7.7,0,0,0,.745-.745v-.969a.745.745,0,0,0-1.49,0V332.7A.735.735,0,0,0,214.14,333.368Z" transform="translate(-201.551 -302.604)" fill="#35bdf6"/>
      <path id="Path_99" data-name="Path 99" d="M178.5,333.368a.7.7,0,0,0,.745-.745v-.969a.745.745,0,0,0-1.49,0V332.7A.735.735,0,0,0,178.5,333.368Z" transform="translate(-169.04 -302.604)" fill="#35bdf6"/>
      <path id="Path_100" data-name="Path 100" d="M142.87,333.368a.7.7,0,0,0,.745-.745v-.969a.745.745,0,0,0-1.49,0V332.7A.735.735,0,0,0,142.87,333.368Z" transform="translate(-136.538 -302.604)" fill="#35bdf6"/>
      <path id="Path_101" data-name="Path 101" d="M107.23,333.368a.7.7,0,0,0,.745-.745v-.969a.745.745,0,0,0-1.49,0V332.7A.735.735,0,0,0,107.23,333.368Z" transform="translate(-104.027 -302.604)" fill="#35bdf6"/>
      <path id="Path_102" data-name="Path 102" d="M214.14,380.955a.7.7,0,0,0,.745-.745v-1.043a.745.745,0,1,0-1.49,0v1.043A.747.747,0,0,0,214.14,380.955Z" transform="translate(-201.551 -345.945)" fill="#35bdf6"/>
      <path id="Path_103" data-name="Path 103" d="M178.5,380.955a.7.7,0,0,0,.745-.745v-1.043a.745.745,0,1,0-1.49,0v1.043A.746.746,0,0,0,178.5,380.955Z" transform="translate(-169.04 -345.945)" fill="#35bdf6"/>
      <path id="Path_104" data-name="Path 104" d="M142.87,380.955a.7.7,0,0,0,.745-.745v-1.043a.745.745,0,1,0-1.49,0v1.043A.746.746,0,0,0,142.87,380.955Z" transform="translate(-136.538 -345.945)" fill="#35bdf6"/>
      <path id="Path_105" data-name="Path 105" d="M107.971,380.214v-1.043a.745.745,0,1,0-1.49,0v1.043a.745.745,0,1,0,1.49,0Z" transform="translate(-104.023 -345.949)" fill="#35bdf6"/>
      <path id="Path_106" data-name="Path 106" d="M89.649,79.4h7.3c3.5,0,3.65-5.289.074-5.438a2.87,2.87,0,0,0-4.246-1.49,2.714,2.714,0,0,0-4.172,1.713A2.7,2.7,0,0,0,89.649,79.4Zm.372-4.693a1.205,1.205,0,0,1,2.16-.745.775.775,0,0,0,1.192,0,1.289,1.289,0,0,1,1.564-.3.994.994,0,0,1,.67,1.043.705.705,0,0,0,.968.819,1.271,1.271,0,0,1,1.639,1.192,1.256,1.256,0,0,1-1.266,1.266h-7.3a1.114,1.114,0,0,1-1.192-1.117c-.224-1.713,1.564-.968,1.564-2.16Z" transform="translate(-86.148 -66.438)" fill="#35bdf6"/>
    </g>
    <g id="Group_78" data-name="Group 78" transform="translate(1014 2272.862)">
      <path id="Path_1" data-name="Path 1" d="M2245.653-514.876V-500.3l20.207,11.966L2278.4-495.6Z" transform="translate(-2212.904 514.876)" fill="url(#linear-gradient)"/>
      <path id="Path_5" data-name="Path 5" d="M2278.4-514.876V-500.3l-19.742,11.521-13.005-6.819Z" transform="translate(-2245.653 514.876)" fill="url(#linear-gradient-2)"/>
    </g>
  </g>
</svg>
