<svg xmlns="http://www.w3.org/2000/svg" xmlns:xlink="http://www.w3.org/1999/xlink" width="60.503" height="52.027" viewBox="0 0 60.503 52.027">
  <defs>
    <linearGradient id="linear-gradient" y1="0.317" x2="0.768" y2="0.87" gradientUnits="objectBoundingBox">
      <stop offset="0" stop-color="#f8661e"/>
      <stop offset="1" stop-color="#f89020"/>
    </linearGradient>
    <linearGradient id="linear-gradient-2" x1="0.5" x2="0.5" y2="1" gradientUnits="objectBoundingBox">
      <stop offset="0" stop-color="#00528a"/>
      <stop offset="1" stop-color="#016ab1"/>
    </linearGradient>
  </defs>
  <g id="Group_124" data-name="Group 124" transform="translate(-81.208 -1968.937)">
    <path id="Icon_simple-probot" data-name="Icon simple-probot" d="M20.4.06a2.963,2.963,0,0,0-.913,5.781l-1.072,4.383H4.174A4.174,4.174,0,0,0,0,14.4V36.544a4.174,4.174,0,0,0,4.174,4.174H36.618a4.175,4.175,0,0,0,4.174-4.174V14.4a4.175,4.175,0,0,0-4.174-4.174H22.335L21.288,5.847A2.963,2.963,0,0,0,20.394.06ZM6.685,13.387H34.111A3.39,3.39,0,0,1,37.5,16.776v17.2a3.389,3.389,0,0,1-3.389,3.389H6.685A3.389,3.389,0,0,1,3.3,33.972v-17.2A3.39,3.39,0,0,1,6.685,13.387Zm5.531,3.93a7.776,7.776,0,1,0,7.776,7.776,7.776,7.776,0,0,0-7.776-7.776Zm16.56,0a7.776,7.776,0,1,0,7.776,7.776,7.776,7.776,0,0,0-7.776-7.776Zm-16.56,1.819a5.959,5.959,0,1,1-5.959,5.959,5.958,5.958,0,0,1,5.959-5.959Zm16.56,0a5.959,5.959,0,1,1-5.959,5.959,5.958,5.958,0,0,1,5.959-5.959Zm-16.56,2.827a3.133,3.133,0,1,0,3.133,3.133A3.133,3.133,0,0,0,12.216,21.962Zm16.56,0a3.133,3.133,0,1,0,3.133,3.133A3.133,3.133,0,0,0,28.776,21.962ZM17,33.01v3.67h1.2V33.01H17Zm1.831,0v3.67h1.2V33.01Zm1.829,0v3.67h1.2V33.01Zm1.831,0v3.67h1.2V33.01Zm1.831.051V36.63a1.836,1.836,0,0,0,1.409-1.783v0A1.836,1.836,0,0,0,24.322,33.061Zm-7.951.048a1.836,1.836,0,0,0-1.242,1.735v0a1.834,1.834,0,0,0,1.242,1.735V33.109Z" transform="translate(81.208 1980.245)" fill="#35bdf6"/>
    <g id="Group_79" data-name="Group 79" transform="translate(-1814.246 2453.437)">
      <path id="Path_1" data-name="Path 1" d="M2245.653-514.876v10.6l14.695,8.7,9.121-5.282Z" transform="translate(-313.512 30.376)" fill="url(#linear-gradient)"/>
      <path id="Path_2" data-name="Path 2" d="M2271.631-499.318l-9.155,5.046v16.389l9.155,5.823Z" transform="translate(-315.675 28.874)" fill="url(#linear-gradient-2)"/>
    </g>
  </g>
</svg>
