<svg xmlns="http://www.w3.org/2000/svg" xmlns:xlink="http://www.w3.org/1999/xlink" width="44.279" height="47.323" viewBox="0 0 44.279 47.323">
  <defs>
    <linearGradient id="linear-gradient" x1="1" y1="0.234" x2="0.25" y2="0.843" gradientUnits="objectBoundingBox">
      <stop offset="0" stop-color="#fce776"/>
      <stop offset="1" stop-color="#f7d525"/>
    </linearGradient>
  </defs>
  <g id="Group_130" data-name="Group 130" transform="translate(-80 -2576)">
    <g id="noun-design-1752122" transform="translate(4.407 2565.242)">
      <path id="Path_107" data-name="Path 107" d="M200.9,148.75H176.079A1.079,1.079,0,0,0,175,149.829v16.186a1.079,1.079,0,0,0,1.079,1.079h8.632v2.8l-2.266.453h0a.539.539,0,0,0-.432.529v1.619a.539.539,0,0,0,.54.54h12.409a.54.54,0,0,0,.54-.54V170.87a.54.54,0,0,0-.432-.529l-2.266-.453v-2.8H200.9a1.079,1.079,0,0,0,1.079-1.079V149.829a1.079,1.079,0,0,0-1.079-1.079Zm-24.818,1.079H200.9v12.948H176.079Zm18.344,21.483v.637h-11.33v-.637l2.266-.453h0a.54.54,0,0,0,.432-.529v-3.237h5.935v3.237a.54.54,0,0,0,.432.529Zm-2.158-5.3H176.079v-2.158H200.9v2.158Z" transform="translate(-82.105 -114.947)" fill="#35bdf6"/>
      <path id="Path_108" data-name="Path 108" d="M91.816,133.712V114.289a.54.54,0,0,0-.54-.54H88.04a.54.54,0,0,0-.54.54v19.423a.539.539,0,0,0,.54.54h3.237a.539.539,0,0,0,.54-.54Zm-1.079-17.8H89.658v1.079h1.079v1.079H89.658v1.079h1.079v1.079H89.658V121.3h1.079v1.079H89.658v1.079h1.079v1.079H89.658v1.079h1.079V126.7H89.658v1.079h1.079v1.079H89.658v1.079h1.079v1.079H89.658v1.079h1.079v1.079H88.579V114.829h2.158Z" transform="translate(0 -82.105)" fill="#35bdf6"/>
      <path id="Path_109" data-name="Path 109" d="M201.433,27.329H182.01v-.54a.54.54,0,1,0-1.079,0v.282l-1.957-.784a.54.54,0,0,0-.5.054L175.237,28.5a.539.539,0,0,0,0,.9l3.237,2.158a.539.539,0,0,0,.5.054l1.957-.787v.282a.54.54,0,1,0,1.079,0v-.54h19.423a.539.539,0,0,0,.54-.54V27.869a.539.539,0,0,0-.54-.54Zm-20.5,2.332-2.1.838-1.52-1.012h2V28.408h-2l1.518-1.012,2.1.838Zm4.316-.174H182.01V28.408h3.237Zm15.646,0H186.326V28.408h14.567Z" transform="translate(-82.101)" fill="#35bdf6"/>
    </g>
    <g id="Group_72" data-name="Group 72" transform="translate(-1828.325 3060.5)">
      <path id="Path_5" data-name="Path 5" d="M2269.468-514.876v10.6l-14.357,8.379-9.458-4.959Z" transform="translate(-337.328 30.376)" fill="url(#linear-gradient)"/>
      <path id="Path_4" data-name="Path 4" d="M2262.476-499.318l9.155,4.86.241,16.628-9.4,4.765Z" transform="translate(-354.02 28.874)" fill="#2c8e3d"/>
    </g>
  </g>
</svg>
