<svg xmlns="http://www.w3.org/2000/svg" xmlns:xlink="http://www.w3.org/1999/xlink" width="69" height="71.595" viewBox="0 0 69 71.595">
  <defs>
    <linearGradient id="linear-gradient" y1="0.317" x2="0.768" y2="0.87" gradientUnits="objectBoundingBox">
      <stop offset="0" stop-color="#f8661e"/>
      <stop offset="1" stop-color="#f89020"/>
    </linearGradient>
    <linearGradient id="linear-gradient-2" x1="0.5" x2="0.5" y2="1" gradientUnits="objectBoundingBox">
      <stop offset="0" stop-color="#00528a"/>
      <stop offset="1" stop-color="#016ab1"/>
    </linearGradient>
  </defs>
  <g id="Group_128" data-name="Group 128" transform="translate(-590 -2264.84)">
    <g id="noun-omni-channel-2759977" transform="translate(502.5 2270.936)">
      <path id="Path_38" data-name="Path 38" d="M453.411,24.4c-.016-.11-.03-.22-.05-.33-.03-.163-.066-.321-.1-.48-.014-.059-.03-.119-.046-.178q-.075-.276-.167-.543c0-.012-.007-.025-.011-.037s0-.008-.006-.012a7.988,7.988,0,0,0-15.059,0s0,.008-.006.013-.007.025-.011.038c-.063.179-.118.359-.167.542-.016.059-.031.119-.046.178-.039.159-.075.318-.1.48-.02.11-.035.22-.051.33s-.036.241-.047.364c-.024.244-.039.49-.039.735s.014.491.038.736c.011.122.03.242.047.364s.03.22.05.33c.03.162.066.321.1.48q.021.089.046.178c.05.183.1.364.167.542l.011.038s0,.008.006.013a7.988,7.988,0,0,0,15.059,0s0-.008.006-.013.007-.025.011-.037c.063-.179.117-.359.167-.543.016-.059.031-.119.046-.177.039-.159.075-.318.1-.48.02-.11.035-.22.05-.33s.036-.241.047-.364c.024-.244.039-.489.039-.735s-.014-.491-.038-.736c-.011-.122-.03-.243-.047-.364Zm-1.565,1.862c0,.041-.013.083-.019.123a6.35,6.35,0,0,1-.134.681c0,.011-.006.022-.009.033H449.42c.049-.514.076-1.048.076-1.6s-.026-1.086-.075-1.6h2.264c0,.011.006.022.009.033a6.523,6.523,0,0,1,.134.681c.006.041.014.081.019.123a6.472,6.472,0,0,1,.049.763,6.274,6.274,0,0,1-.049.762ZM445.5,31.9c-.674,0-1.56-1.185-2.044-3.2h4.088C447.055,30.716,446.17,31.9,445.5,31.9Zm-2.314-4.8a14.9,14.9,0,0,1,0-3.2h4.627a14.833,14.833,0,0,1,0,3.2Zm-3.884-.033a6.523,6.523,0,0,1-.134-.681c-.006-.041-.014-.081-.019-.123a5.9,5.9,0,0,1,0-1.526c0-.041.013-.083.019-.123a6.366,6.366,0,0,1,.134-.681c0-.011.006-.022.009-.033h2.264c-.049.514-.076,1.048-.076,1.6s.027,1.086.075,1.6h-2.264c0-.011-.006-.023-.008-.033Zm6.2-7.967c.674,0,1.559,1.185,2.044,3.2h-4.088c.485-2.015,1.37-3.2,2.044-3.2Zm5.534,3.2h-1.844a10.258,10.258,0,0,0-.841-2.523A6.449,6.449,0,0,1,451.03,22.3Zm-8.382-2.523a10.235,10.235,0,0,0-.842,2.523h-1.844A6.441,6.441,0,0,1,442.648,19.777ZM439.962,28.7h1.844a10.25,10.25,0,0,0,.841,2.523A6.45,6.45,0,0,1,439.962,28.7Zm8.382,2.523a10.278,10.278,0,0,0,.841-2.523h1.844A6.436,6.436,0,0,1,448.344,31.224Z" transform="translate(-317.996 0)" fill="#35bdf6"/>
      <path id="Path_39" data-name="Path 39" d="M239.345,169.109a12,12,0,1,0-17.184,0c.008.01.012.023.021.031s.034.03.05.046c.15.151.31.29.467.433.137.126.27.258.413.375.077.063.16.119.237.18a11.84,11.84,0,0,0,6.123,2.5l.059.009a11.986,11.986,0,0,0,1.223.063c.411,0,.819-.021,1.223-.061l.059-.009a11.858,11.858,0,0,0,6.122-2.5c.079-.061.161-.117.237-.18.142-.119.275-.25.413-.375.158-.143.318-.281.467-.433.016-.016.034-.03.05-.046S239.337,169.119,239.345,169.109Zm-1.7-.591c-.117.1-.234.211-.354.31-.162.132-.333.254-.5.376-.094.067-.186.139-.281.2-.206.137-.419.264-.635.386-.069.039-.136.082-.206.12-.238.128-.483.243-.73.353-.057.025-.112.054-.169.077-.254.106-.514.2-.777.285-.059.019-.116.043-.175.061-.256.079-.519.142-.782.2-.071.016-.141.037-.213.052-.259.052-.522.088-.787.121-.079.01-.157.026-.237.034a10.2,10.2,0,0,1-1.04.054c-.351,0-.7-.019-1.041-.053-.08-.008-.158-.025-.237-.034-.265-.033-.529-.068-.787-.121-.072-.014-.141-.036-.213-.052-.264-.059-.526-.123-.782-.2-.059-.019-.116-.041-.175-.061-.263-.086-.524-.178-.777-.285-.057-.024-.112-.053-.169-.078-.248-.11-.493-.225-.73-.353-.07-.037-.137-.081-.206-.12-.216-.122-.43-.249-.635-.386-.1-.064-.187-.134-.281-.2-.17-.121-.341-.245-.5-.376-.121-.1-.237-.206-.354-.31s-.209-.185-.309-.281V165.55a4,4,0,0,1,4-4h6.4a4,4,0,0,1,4,4v2.687c-.1.1-.2.189-.309.281Zm-9.291-11.768c0-1.765,1.077-3.2,2.4-3.2s2.4,1.435,2.4,3.2-1.077,3.2-2.4,3.2S228.353,158.515,228.353,156.75Zm2.4-6.4a10.38,10.38,0,0,1,8.8,15.917v-.717a5.607,5.607,0,0,0-5.6-5.6h-.227a5.344,5.344,0,0,0,1.027-3.2c0-2.647-1.794-4.8-4-4.8s-4,2.153-4,4.8a5.345,5.345,0,0,0,1.027,3.2h-.227a5.607,5.607,0,0,0-5.6,5.6v.717a10.38,10.38,0,0,1,8.8-15.917Z" transform="translate(-119.253 -119.25)" fill="#35bdf6"/>
      <path id="Path_40" data-name="Path 40" d="M101.1,397.75H92.041l-1.4-3.5a.8.8,0,0,0-.743-.5H87.5v1.6h1.859l1.361,3.4.387,3.1L91.5,405v2.35h1.6v-1.6h5.6v1.6h1.6v-1.6a.8.8,0,0,0,.794-.7l.8-6.4a.8.8,0,0,0-.794-.9Zm-1.106,3.2H97.1v-1.6h3.094Zm-.2,1.6-.2,1.6H97.1v-1.6Zm-4.294-3.2v1.6H92.606l-.2-1.6Zm-2.494,4.8-.2-1.6H95.5v1.6Z" transform="translate(0 -341.85)" fill="#35bdf6"/>
      <path id="Path_41" data-name="Path 41" d="M88.3,30.3h14.4a.8.8,0,0,0,.8-.8V18.3c0-.017-.009-.033-.01-.05a.846.846,0,0,0-.024-.183c0-.016-.015-.028-.021-.043a.913.913,0,0,0-.046-.094.749.749,0,0,0-.1-.151.781.781,0,0,0-.072-.074.765.765,0,0,0-.157-.106.731.731,0,0,0-.083-.043.8.8,0,0,0-.286-.057H88.3a.793.793,0,0,0-.285.057.739.739,0,0,0-.083.043.785.785,0,0,0-.157.106.877.877,0,0,0-.072.074.755.755,0,0,0-.1.151.711.711,0,0,0-.046.094c-.006.015-.016.028-.021.043a.758.758,0,0,0-.024.183c0,.017-.01.032-.01.05V29.5A.8.8,0,0,0,88.3,30.3Zm.8-1.6V19.794l5.956,3.971a.8.8,0,0,0,.888,0l5.956-3.971V28.7Zm10.958-9.6L95.5,22.139,90.943,19.1Z" transform="translate(0 0)" fill="#35bdf6"/>
      <path id="Path_42" data-name="Path 42" d="M481.78,367.66a.8.8,0,0,0-.48-.16h-8a.8.8,0,0,0-.8.8v14.4a.8.8,0,0,0,.8.8h11.2a.8.8,0,0,0,.8-.8v-12a.8.8,0,0,0-.32-.64Zm1.92,14.24h-9.6V369.1h6.934l2.666,2Z" transform="translate(-349.8 -318)" fill="#35bdf6"/>
      <path id="Path_43" data-name="Path 43" d="M507.5,411.25h6.4v1.6h-6.4Z" transform="translate(-381.6 -357.75)" fill="#35bdf6"/>
      <path id="Path_44" data-name="Path 44" d="M507.5,446.25h6.4v1.6h-6.4Z" transform="translate(-381.6 -389.55)" fill="#35bdf6"/>
      <path id="Path_45" data-name="Path 45" d="M507.5,481.25h6.4v1.6h-6.4Z" transform="translate(-381.6 -421.35)" fill="#35bdf6"/>
      <path id="Path_46" data-name="Path 46" d="M503.55,214.8V210h-1.6v4h-3.2v1.6h4A.8.8,0,0,0,503.55,214.8Z" transform="translate(-373.65 -174.9)" fill="#35bdf6"/>
      <path id="Path_47" data-name="Path 47" d="M498.75,290.35h3.2v4h1.6v-4.8a.8.8,0,0,0-.8-.8h-4Z" transform="translate(-373.65 -246.45)" fill="#35bdf6"/>
      <path id="Path_48" data-name="Path 48" d="M153.55,214h-3.2v-4h-1.6v4.8a.8.8,0,0,0,.8.8h4Z" transform="translate(-55.65 -174.9)" fill="#35bdf6"/>
      <path id="Path_49" data-name="Path 49" d="M148.75,289.55v4.8h1.6v-4h3.2v-1.6h-4A.8.8,0,0,0,148.75,289.55Z" transform="translate(-55.65 -246.45)" fill="#35bdf6"/>
      <path id="Path_50" data-name="Path 50" d="M360.35,428.75h-1.6v6.4a.8.8,0,0,0,.8.8h4.8v-1.6h-4Z" transform="translate(-246.45 -373.65)" fill="#35bdf6"/>
      <path id="Path_51" data-name="Path 51" d="M284,434.35h-4v1.6h4.8a.8.8,0,0,0,.8-.8v-6.4H284Z" transform="translate(-174.9 -373.65)" fill="#35bdf6"/>
      <path id="Path_52" data-name="Path 52" d="M358.75,62.05v5.6h1.6v-4.8h4v-1.6h-4.8A.8.8,0,0,0,358.75,62.05Z" transform="translate(-246.45 -39.75)" fill="#35bdf6"/>
      <path id="Path_53" data-name="Path 53" d="M285.6,67.65v-5.6a.8.8,0,0,0-.8-.8H280v1.6h4v4.8Z" transform="translate(-174.9 -39.75)" fill="#35bdf6"/>
    </g>
    <g id="Group_75" data-name="Group 75" transform="translate(-1302.615 2749.34)">
      <path id="Path_1" data-name="Path 1" d="M2245.653-514.876v13.691l18.977,11.238,11.779-6.821Z" transform="translate(-314.794 30.376)" fill="url(#linear-gradient)"/>
      <path id="Path_2" data-name="Path 2" d="M2274.3-499.318l-11.823,6.517v21.165l11.823,7.52Z" transform="translate(-312.685 32.971)" fill="url(#linear-gradient-2)"/>
    </g>
  </g>
</svg>
