<svg xmlns="http://www.w3.org/2000/svg" xmlns:xlink="http://www.w3.org/1999/xlink" width="128" height="40" viewBox="0 0 128 40">
  <defs>
    <linearGradient id="linear-gradient" y1="0.317" x2="0.768" y2="0.87" gradientUnits="objectBoundingBox">
      <stop offset="0" stop-color="#f8661e"/>
      <stop offset="1" stop-color="#f89020"/>
    </linearGradient>
    <linearGradient id="linear-gradient-2" x1="1" y1="0.234" x2="0.25" y2="0.843" gradientUnits="objectBoundingBox">
      <stop offset="0" stop-color="#fce776"/>
      <stop offset="1" stop-color="#f7d525"/>
    </linearGradient>
    <linearGradient id="linear-gradient-3" x1="0.5" x2="0.5" y2="1" gradientUnits="objectBoundingBox">
      <stop offset="0" stop-color="#00528a"/>
      <stop offset="1" stop-color="#016ab1"/>
    </linearGradient>
    <linearGradient id="linear-gradient-4" x1="0.101" y1="0.289" x2="0.753" y2="0.842" gradientUnits="objectBoundingBox">
      <stop offset="0" stop-color="#aedf48"/>
      <stop offset="1" stop-color="#96cd41"/>
    </linearGradient>
  </defs>
  <g id="Group_41" data-name="Group 41" transform="translate(-80 -295)">
    <text id="SECT_RS" data-name="SECT   RS" transform="translate(80 325)" fill="#fff" font-size="29" font-family="Poppins-Regular, Poppins"><tspan x="0" y="0" xml:space="preserve">SECT   RS</tspan></text>
    <g id="Group_39" data-name="Group 39" transform="translate(149.5 300.06)">
      <g id="Group_37" data-name="Group 37">
        <path id="Path_1" data-name="Path 1" d="M2245.653-514.876v5.529l7.664,4.539,4.757-2.755Z" transform="translate(-2233.232 514.876)" fill="url(#linear-gradient)"/>
        <path id="Path_5" data-name="Path 5" d="M2258.074-514.876v5.529l-7.488,4.37-4.934-2.586Z" transform="translate(-2245.653 514.876)" fill="url(#linear-gradient-2)"/>
        <path id="Path_3" data-name="Path 3" d="M0,0V5.59l7.376,4.418,4.86-2.615Z" transform="translate(25.035 21.355) rotate(120)" fill="#5dc5f0"/>
        <path id="Path_2" data-name="Path 2" d="M2267.25-499.318l-4.775,2.632v8.548l4.775,3.037Z" transform="translate(-2242.407 506.649)" fill="url(#linear-gradient-3)"/>
        <path id="Path_4" data-name="Path 4" d="M2262.476-499.318l4.775,2.535.126,8.673-4.9,2.485Z" transform="translate(-2262.407 506.649)" fill="#2c8e3d"/>
        <path id="Path_6" data-name="Path 6" d="M0,0V5.457L7.647,9.769l5.038-2.552Z" transform="translate(12.685 28.246) rotate(-180)" fill="url(#linear-gradient-4)"/>
      </g>
      <g id="Group_38" data-name="Group 38" transform="translate(6.904 7.862)" style="mix-blend-mode: normal;isolation: isolate">
        <path id="Path_1-2" data-name="Path 1" d="M2245.653-514.876v2.48l3.437,2.036,2.133-1.235Z" transform="translate(-2240.083 514.876)" fill="#d1d1d1"/>
        <path id="Path_5-2" data-name="Path 5" d="M2251.223-514.876v2.48l-3.358,1.96-2.212-1.16Z" transform="translate(-2245.653 514.876)" fill="#d1d1d1"/>
        <path id="Path_3-2" data-name="Path 3" d="M0,0V2.507L3.308,4.488l2.18-1.173Z" transform="translate(11.227 9.577) rotate(120)" fill="#d1d1d1"/>
        <path id="Path_2-2" data-name="Path 2" d="M2264.617-499.318l-2.141,1.18v3.833l2.141,1.362Z" transform="translate(-2253.475 502.606)" fill="#d1d1d1"/>
        <path id="Path_4-2" data-name="Path 4" d="M2262.476-499.318l2.141,1.137.057,3.889-2.2,1.115Z" transform="translate(-2262.445 502.606)" fill="#d1d1d1"/>
        <path id="Path_6-2" data-name="Path 6" d="M0,0V2.447L3.429,4.381,5.689,3.237Z" transform="translate(5.689 12.668) rotate(-180)" fill="#d1d1d1"/>
      </g>
    </g>
  </g>
</svg>
