<svg xmlns="http://www.w3.org/2000/svg" xmlns:xlink="http://www.w3.org/1999/xlink" width="283" height="89" viewBox="0 0 283 89">
  <defs>
    <linearGradient id="linear-gradient" y1="0.317" x2="0.768" y2="0.87" gradientUnits="objectBoundingBox">
      <stop offset="0" stop-color="#f8661e"/>
      <stop offset="1" stop-color="#f89020"/>
    </linearGradient>
    <linearGradient id="linear-gradient-2" x1="1" y1="0.234" x2="0.25" y2="0.843" gradientUnits="objectBoundingBox">
      <stop offset="0" stop-color="#fce776"/>
      <stop offset="1" stop-color="#f7d525"/>
    </linearGradient>
    <linearGradient id="linear-gradient-3" x1="0.5" x2="0.5" y2="1" gradientUnits="objectBoundingBox">
      <stop offset="0" stop-color="#00528a"/>
      <stop offset="1" stop-color="#016ab1"/>
    </linearGradient>
    <linearGradient id="linear-gradient-4" x1="0.101" y1="0.289" x2="0.753" y2="0.842" gradientUnits="objectBoundingBox">
      <stop offset="0" stop-color="#aedf48"/>
      <stop offset="1" stop-color="#96cd41"/>
    </linearGradient>
  </defs>
  <g id="Group_40" data-name="Group 40" transform="translate(-80 -295)">
    <text id="SECT_RS" data-name="SECT   RS" transform="translate(80 362)" fill="#fff" font-size="64" font-family="Poppins-Regular, Poppins"><tspan x="0" y="0" xml:space="preserve">SECT   RS</tspan></text>
    <g id="Group_39" data-name="Group 39" transform="translate(6.266 18.131)">
      <g id="Group_37" data-name="Group 37" transform="translate(228.345 287.703)">
        <path id="Path_1" data-name="Path 1" d="M2245.653-514.876v11.652l16.15,9.564,10.025-5.805Z" transform="translate(-2219.478 514.876)" fill="url(#linear-gradient)"/>
        <path id="Path_5" data-name="Path 5" d="M2271.828-514.876v11.652l-15.779,9.209-10.4-5.45Z" transform="translate(-2245.653 514.876)" fill="url(#linear-gradient-2)"/>
        <path id="Path_3" data-name="Path 3" d="M0,0V11.78l15.544,9.31,10.241-5.51Z" transform="translate(52.757 45.002) rotate(120)" fill="#5dc5f0"/>
        <path id="Path_2" data-name="Path 2" d="M2272.538-499.318l-10.062,5.546v18.013l10.062,6.4Z" transform="translate(-2220.187 514.767)" fill="url(#linear-gradient-3)"/>
        <path id="Path_4" data-name="Path 4" d="M2262.476-499.318l10.062,5.342.265,18.276-10.327,5.238Z" transform="translate(-2262.332 514.767)" fill="#2c8e3d"/>
        <path id="Path_6" data-name="Path 6" d="M0,0V11.5l16.114,9.088,10.617-5.379Z" transform="translate(26.731 59.524) rotate(-180)" fill="url(#linear-gradient-4)"/>
      </g>
      <g id="Group_38" data-name="Group 38" transform="translate(242.893 304.271)" style="mix-blend-mode: normal;isolation: isolate">
        <path id="Path_1-2" data-name="Path 1" d="M2245.653-514.876v5.225l7.243,4.289,4.5-2.6Z" transform="translate(-2233.914 514.876)" fill="#d1d1d1"/>
        <path id="Path_5-2" data-name="Path 5" d="M2257.391-514.876v5.226l-7.076,4.13-4.662-2.444Z" transform="translate(-2245.653 514.876)" fill="#d1d1d1"/>
        <path id="Path_3-2" data-name="Path 3" d="M0,0V5.283L6.971,9.458l4.593-2.471Z" transform="translate(23.66 20.182) rotate(120)" fill="#d1d1d1"/>
        <path id="Path_2-2" data-name="Path 2" d="M2266.988-499.318l-4.512,2.487v8.078l4.512,2.87Z" transform="translate(-2243.51 506.247)" fill="#d1d1d1"/>
        <path id="Path_4-2" data-name="Path 4" d="M2262.476-499.318l4.512,2.4.119,8.2-4.632,2.349Z" transform="translate(-2262.411 506.247)" fill="#d1d1d1"/>
        <path id="Path_6-2" data-name="Path 6" d="M0,0V5.157L7.227,9.233l4.761-2.412Z" transform="translate(11.988 26.695) rotate(-180)" fill="#d1d1d1"/>
      </g>
    </g>
  </g>
</svg>
