<svg id="Home" xmlns="http://www.w3.org/2000/svg" width="258.4" height="102" viewBox="0 0 258.4 102">
  <g id="Clients" transform="translate(0 0)">
    <g id="Group_105" data-name="Group 105">
      <g id="logos" transform="translate(0 0)">
        <g id="Weber">
          <g id="gobbler-original-_14_" data-name="gobbler-original-(14)">
            <g id="bee_icon-weber-logo" transform="translate(0 0)">
              <g id="Layer_2" transform="translate(0 0)">
                <g id="Group">
                  <path id="Shape" d="M79.376,37.623a1.946,1.946,0,1,1,.55,1.425,1.944,1.944,0,0,1-.55-1.425m1.948,2.383a2.372,2.372,0,1,0-1.708-.677,2.374,2.374,0,0,0,1.708.677m-.508-2.228H81.3l.732,1.192H82.5l-.791-1.192a.717.717,0,0,0,.522-.225.73.73,0,0,0,.2-.537c0-.548-.319-.786-.968-.786H80.415v2.8h.413Zm0-.357v-.858h.567c.284,0,.6.06.6.405s-.319.453-.673.453Z" transform="translate(99.944 44.639)" fill="#03192b"/>
                  <path id="Shape-2" data-name="Shape" d="M108.574,37.623a1.947,1.947,0,1,1,.551,1.425,1.966,1.966,0,0,1-.551-1.425m1.949,2.383a2.371,2.371,0,1,0-1.709-.677,2.371,2.371,0,0,0,1.709.677m-.508-2.192h.471l.732,1.191h.474l-.793-1.191a.716.716,0,0,0,.524-.225.724.724,0,0,0,.2-.537c0-.548-.317-.786-.979-.786H109.59v2.764h.426Zm0-.357V36.6h.567c.283,0,.6.059.6.405s-.308.453-.673.453Z" transform="translate(136.93 44.639)" fill="#03192b"/>
                  <path id="Shape-3" data-name="Shape" d="M23.168,28.052c0-3.956-3.743-2.24-3.743-4.646V21.178h13.2V78.712a2.729,2.729,0,0,0,.834,1.969,2.68,2.68,0,0,0,1.988.748,2.621,2.621,0,0,0,1.976-.746,2.669,2.669,0,0,0,.8-1.97V21.118H45.97V78.712a2.579,2.579,0,0,0,1.252,2.276,3.187,3.187,0,0,0,3.094,0,2.568,2.568,0,0,0,1.181-2.3V21.118h9.553V74.995c0,6.97-6.731,10.818-18.976,10.818S23.062,82.048,23.062,74.995ZM158.384,57.338V77.711c0,3.276-3.637,8.09-11.454,8.09h-1.594c-7.817,0-11.477-4.766-11.49-8.09V27.993c0-2.812,3.33-8.078,11.419-8.078h1.63c8.112,0,11.489,5.266,11.489,8.078V51.476H143.329V79.558a2.475,2.475,0,0,0,.835,1.788,2.429,2.429,0,0,0,1.869.595,2.558,2.558,0,0,0,1.915-.588,2.605,2.605,0,0,0,.919-1.795V57.385ZM143.317,43.827h5.55V25.955a1.85,1.85,0,0,0-.933-1.62,3.924,3.924,0,0,0-3.625,0,1.788,1.788,0,0,0-.98,1.573ZM93.439,57.338V77.711c0,3.276-3.649,8.09-11.466,8.09H80.45c-7.817,0-11.478-4.766-11.49-8.09V27.993c0-2.812,3.33-8.078,11.419-8.078h1.63c8.077,0,11.431,5.254,11.431,8.078V51.476H78.407V79.558a2.476,2.476,0,0,0,.835,1.788,2.429,2.429,0,0,0,1.869.595,2.572,2.572,0,0,0,1.912-.592,2.617,2.617,0,0,0,.922-1.791s.047-21.386.047-22.22ZM78.407,43.827h5.585V25.955a1.85,1.85,0,0,0-.921-1.62,3.936,3.936,0,0,0-3.637,0,1.788,1.788,0,0,0-.98,1.573Zm84.016-22.554v2.24c0,2.383,3.743.691,3.743,4.635V84.8h9.529V25.586a1.986,1.986,0,0,1,.98-1.287,3.585,3.585,0,0,1,3.436,0,2.052,2.052,0,0,1,1.063,1.775V51.381h9.659V26.229a4.963,4.963,0,0,0-2.74-4.635c-3.176-1.668-8.183-2.383-11.667.214l-.685.477v-1ZM258.377,7.905v86.1a8.3,8.3,0,0,1-8.053,7.983H8.526A8.141,8.141,0,0,1,2.58,99.762,8.29,8.29,0,0,1,0,93.915V8.346C0,3.354,3.153.006,7.829.006h242.3a7.923,7.923,0,0,1,5.787,2.2,8.064,8.064,0,0,1,2.48,5.713m-3.661,0a4.344,4.344,0,0,0-1.408-3.087,4.266,4.266,0,0,0-3.185-1.107H110.95v18.3l.673-.691c1.275-1.3,6.1-1.954,9.9-.346,2.976,1.263,4.546,4.134,4.546,8.257V77.783c0,3.4-4.334,8.09-12.422,8.09-8.384,0-12.293-4.766-12.293-8.09V6.892c0-2.49-1.488-2.728-2.586-3.169H7.841C4.877,3.723,3.7,5.737,3.7,8.346v85.58A4.639,4.639,0,0,0,5.22,97.145a4.557,4.557,0,0,0,3.341,1.166H250.31a4.623,4.623,0,0,0,4.393-4.3ZM110.986,79.558a2.724,2.724,0,0,0,5.385,0V25.693c0-1.084-1.039-1.787-2.6-1.787-1.382,0-2.787.608-2.787,1.787Z" transform="translate(0 0)" fill="#03192b"/>
                </g>
              </g>
              <g id="Layer_2-2" data-name="Layer_2" transform="translate(0 0)">
                <g id="Group-2" data-name="Group">
                  <path id="Shape-4" data-name="Shape" d="M125.058,64.544a4.541,4.541,0,0,0-.755.06l-5.315-15.227c1.276-.488,2.02-1.072,2.02-1.7,0-.81-1.251-1.489-3.307-1.99l-1.6-4.6c6.589-2.955,10.39-10.187,10.39-13.32a12.117,12.117,0,0,0,.213-1.918c-.1-.5.519-.393.519-.393.839-.417.143-2.871,0-2.871s-.685.119-.766-.226c-1.655-7.148-8.4-8.924-13.5-9.365a5.738,5.738,0,0,0,.2-1.668,3.252,3.252,0,0,0,0-.56h.142a1.1,1.1,0,0,0,0-2.2,23.538,23.538,0,0,0-4.192-.238,25.117,25.117,0,0,0-4.074.238,1.1,1.1,0,0,0-.106,2.192,4.453,4.453,0,0,0,0,.572,6.562,6.562,0,0,0,.142,1.585c-5.2.155-12.741,1.191-14.288,9.448h-.65c-.39,0-.874,2.1-.33,2.991.165.286.578.1.956.119.083.834.142.941.248,2.1.331,3.491,3.7,10.008,10.061,13.106l-1.807,4.956c-2.362.5-3.814,1.192-3.814,2.109,0,.679.874,1.311,2.362,1.823L88.63,74.063h1.984l1.913-4.611h27.715a4.829,4.829,0,1,0,4.817-4.885m-9.352-19.242a48.724,48.724,0,0,0-6.412-.5V42.311a17.039,17.039,0,0,0,5.136-.667Zm-.236,19.8,2.113,1.108-9.954.131Zm-4.322-.441a4.753,4.753,0,0,0,1.1-1.192l1.594.834Zm.095-53.972a4.275,4.275,0,0,0,0,.56,6.122,6.122,0,0,0,.165,1.656h-4.723a6.122,6.122,0,0,0,.177-1.608,3.35,3.35,0,0,0,0-.56Zm-8.679,30.572a13.514,13.514,0,0,0,5.03.953v2.55a50.939,50.939,0,0,0-6.471.441Zm-3.176,8.686a39.73,39.73,0,0,0,8.266.858v5.338A4.805,4.805,0,0,0,103.7,62.7l-10.545,4.48Zm4.865,13.844a4.83,4.83,0,0,0,2.362,1.7L95.7,67.367ZM120.4,68.07l-23.037-.1,6.258-.87h15.7l-.093-.071,1.274.667a2.142,2.142,0,0,1-.107.345m.746-1.537L112.778,62.3a4.953,4.953,0,0,0,.2-1.37,4.816,4.816,0,0,0-3.649-4.587V50.83a37.69,37.69,0,0,0,8.006-.929l5.338,15.286a4.805,4.805,0,0,0-1.512,1.358" transform="translate(112.264 10.523)" fill="#03192b"/>
                  <path id="Shape-5" data-name="Shape" d="M79.376,37.623a1.946,1.946,0,1,1,.55,1.425,1.944,1.944,0,0,1-.55-1.425m1.948,2.383a2.372,2.372,0,1,0-1.708-.677,2.374,2.374,0,0,0,1.708.677m-.508-2.228H81.3l.732,1.192H82.5l-.791-1.192a.717.717,0,0,0,.522-.225.73.73,0,0,0,.2-.537c0-.548-.319-.786-.968-.786H80.415v2.8h.413Zm0-.357v-.858h.567c.284,0,.6.06.6.405s-.319.453-.673.453Z" transform="translate(99.944 44.639)" fill="#03192b"/>
                  <path id="Shape-6" data-name="Shape" d="M108.574,37.623a1.947,1.947,0,1,1,.551,1.425,1.966,1.966,0,0,1-.551-1.425m1.949,2.383a2.371,2.371,0,1,0-1.709-.677,2.371,2.371,0,0,0,1.709.677m-.508-2.192h.471l.732,1.191h.474l-.793-1.191a.716.716,0,0,0,.524-.225.724.724,0,0,0,.2-.537c0-.548-.317-.786-.979-.786H109.59v2.764h.426Zm0-.357V36.6h.567c.283,0,.6.059.6.405s-.308.453-.673.453Z" transform="translate(136.93 44.639)" fill="#03192b"/>
                  <path id="Shape-7" data-name="Shape" d="M23.168,28.052c0-3.956-3.743-2.24-3.743-4.646V21.178h13.2V78.712a2.729,2.729,0,0,0,.834,1.969,2.68,2.68,0,0,0,1.988.748,2.621,2.621,0,0,0,1.976-.746,2.669,2.669,0,0,0,.8-1.97V21.118H45.97V78.712a2.579,2.579,0,0,0,1.252,2.276,3.187,3.187,0,0,0,3.094,0,2.568,2.568,0,0,0,1.181-2.3V21.118h9.553V74.995c0,6.97-6.731,10.818-18.976,10.818S23.062,82.048,23.062,74.995ZM158.384,57.338V77.711c0,3.276-3.637,8.09-11.454,8.09h-1.594c-7.817,0-11.477-4.766-11.49-8.09V27.993c0-2.812,3.33-8.078,11.419-8.078h1.63c8.112,0,11.489,5.266,11.489,8.078V51.476H143.329V79.558a2.475,2.475,0,0,0,.835,1.788,2.429,2.429,0,0,0,1.869.595,2.558,2.558,0,0,0,1.915-.588,2.605,2.605,0,0,0,.919-1.795V57.385ZM143.317,43.827h5.55V25.955a1.85,1.85,0,0,0-.933-1.62,3.924,3.924,0,0,0-3.625,0,1.788,1.788,0,0,0-.98,1.573ZM93.439,57.338V77.711c0,3.276-3.649,8.09-11.466,8.09H80.45c-7.817,0-11.478-4.766-11.49-8.09V27.993c0-2.812,3.33-8.078,11.419-8.078h1.63c8.077,0,11.431,5.254,11.431,8.078V51.476H78.407V79.558a2.476,2.476,0,0,0,.835,1.788,2.429,2.429,0,0,0,1.869.595,2.572,2.572,0,0,0,1.912-.592,2.617,2.617,0,0,0,.922-1.791s.047-21.386.047-22.22ZM78.407,43.827h5.585V25.955a1.85,1.85,0,0,0-.921-1.62,3.936,3.936,0,0,0-3.637,0,1.788,1.788,0,0,0-.98,1.573Zm84.016-22.554v2.24c0,2.383,3.743.691,3.743,4.635V84.8h9.529V25.586a1.986,1.986,0,0,1,.98-1.287,3.585,3.585,0,0,1,3.436,0,2.052,2.052,0,0,1,1.063,1.775V51.381h9.659V26.229a4.963,4.963,0,0,0-2.74-4.635c-3.176-1.668-8.183-2.383-11.667.214l-.685.477v-1ZM258.377,7.905v86.1a8.3,8.3,0,0,1-8.053,7.983H8.526A8.141,8.141,0,0,1,2.58,99.762,8.29,8.29,0,0,1,0,93.915V8.346C0,3.354,3.153.006,7.829.006h242.3a7.923,7.923,0,0,1,5.787,2.2,8.064,8.064,0,0,1,2.48,5.713m-3.661,0a4.344,4.344,0,0,0-1.408-3.087,4.266,4.266,0,0,0-3.185-1.107H110.95v18.3l.673-.691c1.275-1.3,6.1-1.954,9.9-.346,2.976,1.263,4.546,4.134,4.546,8.257V77.783c0,3.4-4.334,8.09-12.422,8.09-8.384,0-12.293-4.766-12.293-8.09V6.892c0-2.49-1.488-2.728-2.586-3.169H7.841C4.877,3.723,3.7,5.737,3.7,8.346v85.58A4.639,4.639,0,0,0,5.22,97.145a4.557,4.557,0,0,0,3.341,1.166H250.31a4.623,4.623,0,0,0,4.393-4.3ZM110.986,79.558a2.724,2.724,0,0,0,5.385,0V25.693c0-1.084-1.039-1.787-2.6-1.787-1.382,0-2.787.608-2.787,1.787Z" transform="translate(0 0)" fill="#03192b"/>
                </g>
              </g>
            </g>
          </g>
        </g>
      </g>
    </g>
  </g>
</svg>
