<svg id="Home" xmlns="http://www.w3.org/2000/svg" width="263" height="60.164" viewBox="0 0 263 60.164">
  <g id="Clients" transform="translate(0 0)">
    <g id="Group_106" data-name="Group 106">
      <g id="logos" transform="translate(0 0)">
        <g id="Andertons">
          <path id="Fill-1" d="M98.907,10.915a11.269,11.269,0,0,1-.77,1.575,8.328,8.328,0,0,0-.719,1.488,6.7,6.7,0,0,0,1.386-.727c3.1-1.852,4.791-2.51,6.417-2.51a3.1,3.1,0,0,1,3.285,2.319c.428,1.627-.154,3.029-2.327,5.555-1.78,2.059-2.207,2.907-2.1,4.084.171,1.748,1.2,2.336,3.131,1.8a4.057,4.057,0,0,1,1.232-.208,2.553,2.553,0,0,1-.53.969c-3.131,4.309-9.189,5.573-10.831,2.267-.839-1.661-.342-3.427,1.574-5.538,1.3-1.419,2.139-2.856,2.139-3.634a1.165,1.165,0,0,0-.958-1.212,12.654,12.654,0,0,0-4.243,2.077l-1.608,1.056L91.96,24.033c-1.1,2.059-3.3,6.179-4.894,9.138l-2.909,5.4-1.694.1c-.924.052-2.464.156-3.405.208-1.215.069-1.711.052-1.711-.086,0-.1,2.361-4.6,5.253-10.021,2.892-5.4,5.852-10.938,6.588-12.322,1.112-2.111,1.335-2.631,1.335-3.323a1.258,1.258,0,0,0-.53-1.263c-.291-.242-.5-.485-.462-.536.068-.069,4.261-.329,8.915-.571.257,0,.462.052.462.156" transform="translate(55.609 7.723)" fill="#03192b"/>
          <path id="Fill-3" d="M181.4,21.391a3.567,3.567,0,0,1,1.781,2.561,6.487,6.487,0,0,1-2.037,5.538c-2.394,2.354-7.254,4.032-14.972,5.157-3.524.519-12.046,1.3-17.743,1.644-20.552,1.229-30.613,3.375-34.993,7.459l-.753.71-1.164-.779A68.365,68.365,0,0,0,94.662,35.86c-1.762-.519-2.242-.952-1.027-.952.342,0,5.1-.19,10.557-.433s19.866-.865,32-1.385c12.15-.519,23.118-1.038,24.383-1.125,10.267-.813,16.837-2.423,18.532-4.534a2.726,2.726,0,0,0,.376-2.838,2.989,2.989,0,0,0-2.157-1.281,1.208,1.208,0,0,1-.547-.1,2.706,2.706,0,0,1,.394-1.108c.564-1.142.7-1.212,2.394-1.142a4.533,4.533,0,0,1,1.831.433" transform="translate(66.835 15.055)" fill="#03192b"/>
          <path id="Fill-5" d="M80.273,35.633c-2.19,4.742-5.869,8.273-8.641,8.273a2.183,2.183,0,0,1-2.259-1.246,3.517,3.517,0,0,1-.411-2.3,11.644,11.644,0,0,1,1.352-5.382c1.677-3.634,4.329-6.542,6.9-7.615a5.436,5.436,0,0,1,1.865-.415,1.781,1.781,0,0,1,1.506.536c1.557,1.385,1.437,4.361-.308,8.151m20.636-27c1.608-2.284,3.8-4.707,4.6-5.105a3.521,3.521,0,0,1,.684-.294c.291,0,.65.606.65,1.142,0,2.527-3.7,6.7-7.94,8.965a4.618,4.618,0,0,1-1.249.554,35.254,35.254,0,0,1,3.251-5.261m8.675,17.5a7.173,7.173,0,0,1-1.454,1.021,2.122,2.122,0,0,0-.77.5c0,.381,2.909.242,4.278-.208,4.38-1.437,5.972-6.023,2.892-8.29-1.181-.865-2.224-1.125-4.432-1.108a7.569,7.569,0,0,0-3.217.45c-3.8,1.385-6.263,4.136-6.485,7.269a7.485,7.485,0,0,0,.068,1.852l.154.606-1.557.537c-5.185,1.8-8.881,5.971-9.411,10.574l-.12,1.038-2.242,1.142c-3.354,1.7-4.038,1.956-4.38,1.748a.73.73,0,0,1-.239-.606c0-.225,2.327-4.655,5.133-9.83,2.823-5.192,5.8-10.678,6.622-12.2l1.489-2.786,1.095-.311a31.205,31.205,0,0,0,6.588-3.306c5.219-3.6,8.042-7.252,8.042-10.4A3.449,3.449,0,0,0,109.669.414a7.784,7.784,0,0,0-4.363-.208,17.031,17.031,0,0,0-5.322,2.665c-2.31,1.765-4.825,4.811-7.58,9.155-.975,1.54-1.42,2.094-1.626,2.042-1.027-.312-6.3-1.16-9.343-1.488a124.33,124.33,0,0,0-14.151-.19c-7.683.658-13.381,2.3-17.453,5.088-1.3.865-1.779,1.506-.941,1.229a66.093,66.093,0,0,1,9.189.087,27.79,27.79,0,0,1,5.6,1.35l1.078.433.89-.8a13.537,13.537,0,0,1,4.928-2.51,34.2,34.2,0,0,1,10.866-.9c2.926.225,7.614.917,7.614,1.125,0,.138-2.84,5.607-3.713,7.165l-.428.727-.411-.848a7.189,7.189,0,0,0-2.892-2.8C77.415,19.866,70.793,23.57,66.6,30.147c-2.087,3.271-3.73,7.857-3.73,10.4,0,.554-.051.606-2.088,1.7-2.772,1.471-5.356,2.6-5.681,2.475a.627.627,0,0,1-.274-.554,39.8,39.8,0,0,1,2.378-4.9c5.3-9.969,5.835-11.146,5.835-13.136,0-2.388-1.283-3.721-3.576-3.7-1.66,0-3.593.8-6.981,2.873a2.525,2.525,0,0,1-.736.381,15.863,15.863,0,0,1,.77-1.471,9.563,9.563,0,0,0,.77-1.575c0-.1-.205-.19-.462-.19-1.164,0-8.555.381-8.778.45-.171.069-.1.208.291.519a1.744,1.744,0,0,1,.547,2.094A31.178,31.178,0,0,1,43.4,28.5c-2.943,5.365-11.841,22.049-11.841,22.2,0,.086.308.121.736.052.393-.052,1.985-.225,3.542-.381s2.823-.294,2.84-.294c.12-.208,6.023-11.249,7.58-14.174l2.1-3.946,1.386-.848c4.124-2.492,5.031-2.907,5.544-2.527.274.208.274.311.086,1.021-.12.45-1.454,3.115-2.977,5.953-4.073,7.58-4.192,7.823-4.517,8.948a9.194,9.194,0,0,0-.274,2.2c.017,2.579,1.814,4.24,4.226,3.877,1.335-.208,6.365-2.959,9.873-5.382l1.318-.917.376,1.108a6.484,6.484,0,0,0,3.884,4.05,9.882,9.882,0,0,0,7.084-1.4,9.616,9.616,0,0,1,1.266-.675,3.173,3.173,0,0,1,.7.692c1.146,1.35,3.1,1.523,5.3.45,1.591-.779,5.407-3.011,7.1-4.154l1.386-.952.582.987c1.694,2.908,4.757,4.344,8.863,4.119a14.88,14.88,0,0,0,7.118-2.111c1.848-1.125,4.141-4.015,5.407-6.767.787-1.731.77-1.8-.325-1.7-.5.052-3.063.208-5.7.363-2.635.139-4.825.311-4.876.363s.034.139.171.19a5,5,0,0,1,1.968,2.319c.274,1.419-.941,2.561-2.721,2.561A3.83,3.83,0,0,1,96.8,40.981c-.667-2.371.565-4.846,3.319-6.594,1.865-1.194,3.816-1.869,7.392-2.544l.736-.139-.992-.692a4.557,4.557,0,0,1-1.489-1.558,3.116,3.116,0,0,1-.411-2.2c.137-2.735,2.088-5.33,4.021-5.33,2.019,0,2.139,2.458.205,4.206" transform="translate(22.689)" fill="#03192b"/>
          <path id="Fill-8" d="M50.106,29.4a17.476,17.476,0,0,1-4.072.26,11.412,11.412,0,0,1,1.249-1.16c.667-.588,2.5-2.267,4.055-3.738s2.84-2.648,2.875-2.631c.069.052-3.867,7.009-4.107,7.269M70.3,3.2c-.428.035-8.436.363-11.55.485-.582.017-.479.225.445.831,1.574,1.038,1.934,2.631.975,4.5-1.694,3.358-7.512,9.363-16.272,16.77C32.841,35.149,13.129,49.566,2.281,56.229A16.363,16.363,0,0,0,0,57.769c0,.19-.513.277,9.069-1.679,4.466-.917,10.2-2.042,12.713-2.51s4.62-.9,4.688-.952c.051-.069-.034-.381-.188-.71-.582-1.263-.222-3.34.958-5.365,1.643-2.8,5.3-6.577,9.668-9.934l1.4-1.073,4.38-.225c2.4-.121,4.363-.173,4.363-.138s-1.814,3.444-4.021,7.546C39.5,49.306,38.847,50.6,39.069,50.6c.034,0,2.173-.311,4.757-.675,2.584-.381,5.766-.813,7.084-.969s2.5-.329,2.635-.364c.154-.052-.034-.346-.565-.934-1.266-1.385-1.557-2.163-1.54-4.327a8.609,8.609,0,0,1,.633-3.686,36.037,36.037,0,0,1,1.694-3.981c1.01-2.008,8.863-16.839,14.442-27.258,1.455-2.7,2.635-4.984,2.635-5.071S70.587,3.2,70.3,3.2" transform="translate(0 2.301)" fill="#03192b"/>
          <path id="Fill-10" d="M127.777,27.491c-2.138,4.534-5.8,8.29-9.035,9.294-2.035.623-3.251.242-4-1.246-1.557-3.081,1.489-9.83,6.092-13.534a9.965,9.965,0,0,1,3.833-2.129,3.787,3.787,0,0,1,2.994.208,3.734,3.734,0,0,1,1.231,3.046,8.774,8.774,0,0,1-1.112,4.361m67.3-23.278A44.61,44.61,0,0,1,188.18,7.38,47.171,47.171,0,0,1,179.4,9.492a19.576,19.576,0,0,0-3.251.675c-1.026.537-1.471,1.333-2.4,4.292a38.016,38.016,0,0,0-1.489,7.6c-.719,5.382-1.538,7.909-3.371,10.194a6.306,6.306,0,0,1-2.412,1.9c-.069,0,.138-.346.462-.779a4.573,4.573,0,0,0,1.026-3.288,3.852,3.852,0,0,0-4.21-4.119,5.589,5.589,0,0,0-4,1.834,10.856,10.856,0,0,0-2,4.361l-.239,1.212L156.25,34c-2.412,1.194-3.2,1.3-3.012.364.052-.26,1.729-3.531,3.713-7.286,1.985-3.738,3.816-7.407,4.057-8.134,1.009-3.046.325-5.382-1.781-6.092-1.59-.519-3.747.1-7.135,2.059a12.618,12.618,0,0,1-1.814.952c0-.052.359-.761.787-1.558a7.068,7.068,0,0,0,.7-1.54c-.1-.1-9.153.363-9.274.485-.052.052.138.329.428.623.753.761.7,1.54-.189,3.271a12.11,12.11,0,0,1-.975,1.644,78.561,78.561,0,0,1-7.546,3.946c-.12,0-.187-.4-.187-1a7.27,7.27,0,0,0-3.936-6.68,5.646,5.646,0,0,0-2.943-.588,8.079,8.079,0,0,0-3.405.381c-5.27,1.54-10.541,6.248-13.329,11.959a19.631,19.631,0,0,0-2.02,6.4l-.12,1.212-2.823,1.436c-3.285,1.662-3.97,1.921-4.363,1.592a.533.533,0,0,1-.154-.588c.069-.208,2.635-5.036,5.716-10.748,3.063-5.711,5.886-10.955,6.262-11.647.719-1.367.667-1.35,2.549-1.488,2.721-.208,35.318-3.046,36.1-3.133.839-.1.871-.121,1.693-1.4a3.941,3.941,0,0,0,.719-1.4c-.052-.069-8.607.381-19.01.986s-18.958,1.056-19.01,1a9.087,9.087,0,0,1,.923-1.99c.566-1.021,1.181-2.2,1.387-2.613l.359-.727-1.917.017c-2.345.035-7.357.312-7.46.415-.052.035.153.312.462.588.77.727.736,1.506-.189,3.34l-.736,1.436-4.193.277c-2.31.156-4.209.294-4.243.312-.12.052-3.114,4.24-3.114,4.361,0,.069.359.1.821.052,1.831-.19,8.332-.727,8.384-.692.052.052-3.2,6.092-7.9,14.693-1.728,3.185-3.439,6.352-3.782,7.044-2.207,4.448-.753,8.255,3.029,7.909a7.03,7.03,0,0,0,2.686-.952c1.951-1.021,5.082-2.873,6.81-4.05.684-.45,1.267-.831,1.318-.831a3.1,3.1,0,0,1,.443.813,6.41,6.41,0,0,0,6.417,4.067c3.029.017,6.006-1.142,9.291-3.634a26.12,26.12,0,0,0,7.837-10.073,5.14,5.14,0,0,1,.566-1.212c.1,0,2.96-1.713,5.3-3.167l.6-.364-.529.935c-1.626,2.96-8.3,15.489-8.316,15.663-.034.173,1.9.156,5.184-.069l1.609-.1.581-1.038c.325-.571,2.515-4.655,4.877-9.069,4.911-9.155,3.954-7.944,8.179-10.4,1.575-.9,2.259-1.211,2.635-1.177.5.052.514.086.5.848,0,.692-.428,1.575-3.474,7.234-1.917,3.548-3.627,6.888-3.816,7.442a7.883,7.883,0,0,0-.325,3.963,4.021,4.021,0,0,0,2.173,2.388c1.643.623,2.876.225,7.615-2.527a8.431,8.431,0,0,1,2.173-1.056,11.953,11.953,0,0,0,.753,1.142c1.267,1.731,3.029,2.509,5.612,2.509,5.3,0,9.736-3.583,11.515-9.277.686-2.163.925-3.894,1.318-9.138a81.109,81.109,0,0,1,1.078-9.38,9.817,9.817,0,0,1,1.643.277c3.438.71,7.837.865,9.633.346.787-.225,1.9-1.454,2.943-3.254a58.125,58.125,0,0,0,3.012-6.265c0-.121-.2-.069-.548.173" transform="translate(67.377 2.656)" fill="#03192b"/>
        </g>
      </g>
    </g>
  </g>
</svg>
