<svg xmlns="http://www.w3.org/2000/svg" width="263" height="79.183" viewBox="0 0 263 79.183">
  <g id="Home" transform="translate(0)">
    <g id="Clients" transform="translate(0 0)">
      <g id="Group_104" data-name="Group 104" transform="translate(0 0)">
        <g id="logos">
          <g id="Mollie">
            <g id="Group-25" transform="translate(0 0)">
              <g id="Group_103" data-name="Group 103" transform="translate(0 0)">
                <g id="Group-9" transform="translate(0 0.717)">
                  <path id="Fill-1" d="M56.247,9.207A26.106,26.106,0,1,0,82.411,35.313,26.163,26.163,0,0,0,56.247,9.207m0,39.865A13.731,13.731,0,1,1,70.009,35.34,13.762,13.762,0,0,1,56.247,49.072" transform="translate(54.991 16.112)" fill="#03192b"/>
                  <path id="Fill-3" d="M75.385,16.536a8.141,8.141,0,1,0-8.159-8.141,8.15,8.15,0,0,0,8.159,8.141" transform="translate(122.885 -0.254)" fill="#03192b"/>
                  <path id="Fill-5" d="M57.822,9.269c-.68-.054-1.333-.081-2.013-.081a22.752,22.752,0,0,0-16.59,7.137A22.7,22.7,0,0,0,0,31.82V60.4H12.239V32.173A10.819,10.819,0,0,1,21.54,21.7c.354-.027.707-.054,1.033-.054A10.337,10.337,0,0,1,32.882,31.9V60.4H45.393V32.118a10.789,10.789,0,0,1,9.3-10.448c.353-.027.707-.054,1.033-.054a10.332,10.332,0,0,1,10.335,10.2V60.4H78.574V32.173a23.147,23.147,0,0,0-5.956-15.5,22.332,22.332,0,0,0-14.8-7.409" transform="translate(0 16.077)" fill="#03192b"/>
                  <path id="Fill-7" d="M50.972,75.992H63.483V.685H50.972Z" transform="translate(93.175 0.536)" fill="#03192b"/>
                </g>
                <g id="Group-12" transform="translate(142.205 0)">
                  <path id="Fill-10" d="M-.687,78.5h16.4V-.685H-.687Z" transform="translate(0.687 0.685)" fill="#03192b"/>
                </g>
                <path id="Fill-13" d="M59.435,75.992H71.946V.685H59.435Z" transform="translate(108.645 1.253)" fill="#03192b"/>
                <g id="Group-17" transform="translate(166.138 0)">
                  <path id="Fill-15" d="M-.687,78.5h16.4V-.685H-.687Z" transform="translate(0.687 0.685)" fill="#03192b"/>
                </g>
                <path id="Fill-18" d="M67.9,59.581H80.41V9.648H67.9Z" transform="translate(124.116 17.636)" fill="#03192b"/>
                <g id="Group-22" transform="translate(190.072 25.346)">
                  <path id="Fill-20" d="M-.687,53.124h16.4V-.685H-.687Z" transform="translate(0.687 0.685)" fill="#03192b"/>
                </g>
                <path id="Fill-23" d="M125.911,34.181a24.954,24.954,0,0,0-7.262-17.612,24.5,24.5,0,0,0-17.515-7.381h-.327a26.121,26.121,0,0,0,.354,52.239h.027a26.335,26.335,0,0,0,22.519-12.809l.6-1L113.971,42.54l-.516.841a14.08,14.08,0,0,1-25.593-3.474h38.05Zm-25.267-13.65a13.422,13.422,0,0,1,12.62,9.064H88.052a13.36,13.36,0,0,1,12.592-9.064Z" transform="translate(137.089 16.794)" fill="#03192b"/>
              </g>
            </g>
          </g>
        </g>
      </g>
    </g>
  </g>
</svg>
